<svg width="490" height="448" viewBox="0 0 490 448" fill="none" xmlns="http://www.w3.org/2000/svg">
<path d="M97.7568 447.615C151.629 447.615 195.302 443.26 195.302 437.888C195.302 432.516 151.629 428.161 97.7568 428.161C43.8843 428.161 0.212036 432.516 0.212036 437.888C0.212036 443.26 43.8843 447.615 97.7568 447.615Z" fill="#E6E6E6"/>
<path d="M74.7736 99.6173C91.7493 90.1372 112.893 96.1437 133.542 100.312C133.734 95.2641 136.063 89.12 133.623 85.5979C130.659 81.3189 130.932 76.823 132.716 72.3011C137.277 60.738 130.742 48.4342 124.144 38.2037C122.657 35.903 120.777 34.0953 118.658 32.9274C116.539 31.7596 114.24 31.2645 111.948 31.4824L99.7251 32.6287C96.7509 32.9076 93.9125 34.3725 91.5897 36.8273C89.2669 39.2821 87.5706 42.6098 86.7276 46.3651C83.8091 51.5766 82.2471 56.7736 83.2305 61.9436C78.8591 65.8659 78.1247 70.6005 80.089 75.938C81.7547 79.2987 81.737 82.57 80.0133 85.7507C77.7495 89.806 76.0157 94.3277 74.8828 99.1305L74.7736 99.6173Z" fill="#2F2E41"/>
<path d="M478.187 387.008H132.201C129.124 387.008 126.173 385.404 123.997 382.547C121.822 379.691 120.6 375.816 120.6 371.776C246.02 352.638 369.082 352.638 489.788 371.776C489.788 375.816 488.566 379.691 486.39 382.547C484.215 385.404 481.264 387.008 478.187 387.008Z" fill="#2F2E41"/>
<path d="M489.788 372.672L120.6 371.776L163.387 277.248L163.592 276.8V68.4717C163.592 65.943 163.971 63.4391 164.708 61.1029C165.445 58.7666 166.525 56.6439 167.887 54.8559C169.249 53.0678 170.865 51.6495 172.645 50.6819C174.424 49.7144 176.331 49.2165 178.257 49.2167H430.083C432.009 49.2165 433.916 49.7144 435.696 50.6819C437.475 51.6495 439.092 53.0678 440.453 54.8559C441.815 56.6439 442.895 58.7666 443.632 61.1029C444.369 63.4391 444.749 65.943 444.748 68.4717V278.234L489.788 372.672Z" fill="#3F3D56"/>
<path d="M178.989 290.241C178.598 290.241 178.215 290.389 177.885 290.666C177.556 290.944 177.294 291.339 177.129 291.805L163.945 329.437C163.802 329.847 163.739 330.297 163.763 330.747C163.786 331.196 163.896 331.631 164.081 332.011C164.266 332.39 164.521 332.702 164.822 332.919C165.124 333.135 165.461 333.248 165.805 333.248H443.062C443.411 333.248 443.754 333.131 444.059 332.908C444.363 332.685 444.62 332.363 444.803 331.974C444.987 331.584 445.091 331.139 445.107 330.681C445.122 330.223 445.048 329.768 444.892 329.358L430.562 291.726C430.392 291.279 430.131 290.903 429.808 290.64C429.484 290.377 429.111 290.239 428.731 290.241H178.989Z" fill="#2F2E41"/>
<path d="M304.17 59.5207C305.866 59.5207 307.241 57.7155 307.241 55.4887C307.241 53.2619 305.866 51.4567 304.17 51.4567C302.474 51.4567 301.099 53.2619 301.099 55.4887C301.099 57.7155 302.474 59.5207 304.17 59.5207Z" fill="white"/>
<path d="M276.918 340.416C276.468 340.417 276.031 340.612 275.674 340.972C275.316 341.331 275.059 341.835 274.942 342.405L271.634 358.533C271.553 358.932 271.542 359.349 271.603 359.754C271.664 360.159 271.795 360.54 271.986 360.867C272.177 361.195 272.423 361.46 272.705 361.643C272.987 361.825 273.297 361.92 273.611 361.92H336.505C336.832 361.92 337.153 361.818 337.443 361.622C337.733 361.425 337.984 361.141 338.173 360.791C338.362 360.442 338.485 360.039 338.531 359.615C338.578 359.19 338.546 358.758 338.439 358.353L334.187 342.225C334.048 341.697 333.787 341.239 333.44 340.915C333.093 340.591 332.678 340.417 332.253 340.416H276.918Z" fill="#2F2E41"/>
<path d="M444.748 273.665V277.248H163.387L163.599 276.801V273.665H444.748Z" fill="#2F2E41"/>
<path d="M162.903 169.255L126.538 194.639L126.078 173.485C137.947 170.884 149.239 166.354 159.681 158.98L163.484 146.643C163.899 145.298 164.572 144.119 165.439 143.219C166.305 142.32 167.335 141.732 168.427 141.513C169.519 141.294 170.635 141.452 171.667 141.971C172.698 142.489 173.61 143.351 174.311 144.472C175.336 146.112 175.849 148.202 175.745 150.319C175.641 152.437 174.928 154.423 173.75 155.876L162.903 169.255Z" fill="#FFB8B8"/>
<path d="M74.0487 315.814C73.7834 314.536 73.727 313.2 73.8834 311.891C74.0397 310.583 74.4052 309.333 74.9558 308.224L82.9441 292.127C84.8336 288.32 87.7327 285.57 91.0792 284.411C94.4256 283.252 97.9807 283.766 101.055 285.854C97.6975 293.357 98.1655 299.94 102.214 305.66C95.929 309.688 90.12 314.888 84.9673 321.098C84.0266 321.94 82.9463 322.474 81.8163 322.657C80.6864 322.84 79.5395 322.666 78.4713 322.149C77.403 321.632 76.4444 320.787 75.6751 319.685C74.9058 318.583 74.3481 317.256 74.0487 315.814Z" fill="#2F2E41"/>
<path d="M164.56 294.767C163.351 297.412 161.644 299.605 159.604 301.135C157.564 302.665 155.259 303.481 152.909 303.505L99.8398 304.032L97.5382 286.505L121.014 277.439L101.221 257.495L122.856 224.253L162.151 272.341C164.448 275.152 165.94 278.913 166.379 282.995C166.817 287.077 166.175 291.232 164.56 294.767Z" fill="#2F2E41"/>
<path d="M91.5539 414.635H79.1253C67.9663 314.204 56.6074 213.493 90.1729 175.903L129.76 184.364L124.697 228.484L102.602 261.725L91.5539 414.635Z" fill="#2F2E41"/>
<path d="M102.479 437.386C101.506 437.734 100.488 437.808 99.4918 437.603C98.4955 437.398 97.5436 436.918 96.6986 436.195L83.2037 433.814C80.3039 431.333 78.2093 427.527 77.3262 423.133C76.4432 418.739 76.8346 414.071 78.4247 410.035C84.1395 414.443 89.1528 413.828 93.5092 408.512C96.5874 416.672 101.659 416.175 106.503 423.05C107.144 424.285 107.551 425.703 107.691 427.187C107.83 428.67 107.697 430.176 107.304 431.579C106.91 432.981 106.267 434.24 105.428 435.25C104.588 436.26 103.578 436.993 102.479 437.386Z" fill="#2F2E41"/>
<path d="M121.014 108.816L97.9982 101.563C101.821 91.2898 102.136 79.8585 100.3 67.7175L115.951 67.1132C116.441 82.2108 117.925 96.3158 121.014 108.816Z" fill="#FFB8B8"/>
<path d="M127.34 202.562C110.585 217.552 98.7469 203.075 89.7128 180.738C90.9682 167.07 88.9355 150.713 85.171 132.94C83.4967 125.101 84.1218 116.722 86.9227 109.459C89.7237 102.195 94.4969 96.5745 100.3 93.7061L120.094 104.585C136.901 122.573 140.209 142.056 133.903 162.606L127.34 202.562Z" fill="white"/>
<path d="M79.1254 123.926L60.7127 136.618L93.3953 162.002L97.9428 176.73C98.2463 177.713 98.3942 178.767 98.3774 179.827C98.3606 180.888 98.1794 181.933 97.845 182.898C97.5106 183.864 97.0299 184.73 96.4322 185.444C95.8346 186.157 95.1325 186.704 94.3687 187.05C93.5005 187.443 92.5748 187.566 91.6641 187.411C90.7534 187.256 89.8824 186.827 89.1193 186.156C88.3561 185.485 87.7217 184.591 87.2656 183.545C86.8094 182.498 86.544 181.327 86.4901 180.124L86.0302 169.859L44.491 151.861C43.0915 151.254 41.8154 150.238 40.7594 148.888C39.7034 147.538 38.8952 145.89 38.3959 144.07C37.6683 141.416 37.6312 138.52 38.2906 135.836C38.95 133.151 40.2686 130.829 42.0401 129.234L75.4429 99.1457L79.1254 123.926Z" fill="#FFB8B8"/>
<path d="M97.538 126.343C89.8588 121.924 82.8759 126.724 74.0619 130.574L72.6809 98.5412C81.4328 92.4166 89.7772 90.7653 97.5381 95.5193L97.538 126.343Z" fill="white"/>
<path d="M106.724 82.98C114.84 82.98 121.419 74.3418 121.419 63.6861C121.419 53.0304 114.84 44.3923 106.724 44.3923C98.6085 44.3923 92.0294 53.0304 92.0294 63.6861C92.0294 74.3418 98.6085 82.98 106.724 82.98Z" fill="#FFB8B8"/>
<path d="M124.304 61.2517C109.755 63.1226 98.6684 59.9985 91.583 51.103V43.9392H123.069L124.304 61.2517Z" fill="#2F2E41"/>
<path d="M424.552 264.219H180.047V71.1704H424.552V264.219Z" fill="white"/>
<path d="M239.153 111.664C244.454 111.664 248.751 107.026 248.751 101.305C248.751 95.5839 244.454 90.9461 239.153 90.9461C233.852 90.9461 229.554 95.5839 229.554 101.305C229.554 107.026 233.852 111.664 239.153 111.664Z" fill="#E6E6E6"/>
<path d="M261.492 94.7129C261.06 94.7136 260.646 94.8627 260.341 95.1276C260.036 95.3924 259.865 95.7513 259.865 96.1255C259.865 96.4997 260.036 96.8586 260.341 97.1234C260.646 97.3882 261.06 97.5374 261.492 97.538H380.491C380.922 97.5374 381.336 97.3882 381.641 97.1234C381.946 96.8586 382.117 96.4997 382.117 96.1255C382.117 95.7513 381.946 95.3924 381.641 95.1276C381.336 94.8627 380.922 94.7136 380.491 94.7129H261.492Z" fill="#E6E6E6"/>
<path d="M261.505 105.072C261.071 105.071 260.654 105.219 260.347 105.483C260.039 105.748 259.866 106.107 259.865 106.481C259.864 106.856 260.036 107.215 260.342 107.481C260.648 107.746 261.064 107.896 261.498 107.897H337.033C337.248 107.897 337.461 107.861 337.66 107.79C337.859 107.719 338.04 107.615 338.192 107.484C338.344 107.353 338.465 107.197 338.548 107.025C338.63 106.854 338.672 106.67 338.672 106.484C338.672 106.298 338.63 106.115 338.548 105.943C338.465 105.772 338.344 105.616 338.192 105.484C338.04 105.353 337.859 105.249 337.66 105.178C337.461 105.108 337.248 105.071 337.033 105.072H261.505Z" fill="#E6E6E6"/>
<path d="M424.552 264.219H180.047V71.1704H424.552V264.219ZM182.784 261.339H421.816V74.0504H182.784V261.339Z" fill="#E6E6E6"/>
<path d="M194.192 130.498V245.385H411.418V130.498H194.192ZM410.373 158.945H357.372V131.597H410.373V158.945ZM303.327 158.945V131.597H356.328V158.945H303.327ZM356.328 160.044V187.392H303.327V160.044H356.328ZM302.283 158.945H249.282V131.597H302.283V158.945ZM302.283 160.044V187.392H249.282V160.044H302.283ZM248.237 187.392H195.237V160.044H248.237V187.392ZM248.237 188.491V215.839H195.237V188.491H248.237ZM249.282 188.491H302.283V215.839H249.282V188.491ZM302.283 216.938V244.286H249.282V216.938H302.283ZM303.327 216.938H356.328V244.286H303.327V216.938ZM303.327 215.839V188.491H356.328V215.839H303.327ZM357.372 188.491H410.373V215.839H357.372V188.491ZM357.372 187.392V160.044H410.373V187.392H357.372ZM248.237 131.597V158.945H195.237V131.597H248.237ZM195.237 216.938H248.237V244.286H195.237V216.938ZM357.372 244.286V216.938H410.373V244.286H357.372Z" fill="#E4E4E4"/>
<path d="M282.57 161.574L261.099 161.04C258.951 151.91 259.918 143.217 261.632 135.206L283.103 135.74C280.931 144.162 280.748 153.052 282.57 161.574Z" fill="#6C63FF"/>
<path d="M265.927 141.182L265.938 139.915L277.041 140.531L277.029 141.798L265.927 141.182Z" fill="white"/>
<path d="M265.927 144.315L265.938 143.681L277.041 143.99L277.03 144.623L265.927 144.315Z" fill="white"/>
<path d="M265.927 148.081L265.939 147.448L277.041 147.757L277.03 148.39L265.927 148.081Z" fill="white"/>
<path d="M265.927 151.54L265.938 150.273L277.041 150.89L277.029 152.157L265.927 151.54Z" fill="white"/>
<path d="M265.927 154.673L265.938 154.04L277.041 154.348L277.029 154.982L265.927 154.673Z" fill="white"/>
<path d="M236.094 224.668L214.623 224.153C212.475 215.349 213.442 206.966 215.156 199.242L236.627 199.756C234.455 207.878 234.272 216.45 236.094 224.668Z" fill="#F0F0F0"/>
<path d="M218.441 205.217L218.452 203.95L229.554 204.566L229.543 205.834L218.441 205.217Z" fill="white"/>
<path d="M218.441 208.35L218.452 207.717L229.554 208.025L229.543 208.659L218.441 208.35Z" fill="white"/>
<path d="M218.441 212.117L218.452 211.484L229.554 211.792L229.543 212.426L218.441 212.117Z" fill="white"/>
<path d="M218.441 215.576L218.452 214.309L229.554 214.926L229.543 216.192L218.441 215.576Z" fill="white"/>
<path d="M218.441 218.709L218.452 218.076L229.554 218.384L229.543 219.017L218.441 218.709Z" fill="white"/>
<path d="M349.23 195.475L326.826 194.96C324.585 186.156 325.594 177.774 327.382 170.049L349.786 170.563C347.52 178.685 347.329 187.258 349.23 195.475Z" fill="#F0F0F0"/>
<path d="M331.6 176.025L331.611 174.757L342.714 175.374L342.702 176.641L331.6 176.025Z" fill="white"/>
<path d="M331.6 179.158L331.611 178.524L342.714 178.833L342.702 179.466L331.6 179.158Z" fill="white"/>
<path d="M331.6 182.924L331.612 182.291L342.714 182.6L342.702 183.233L331.6 182.924Z" fill="white"/>
<path d="M331.6 186.383L331.611 185.116L342.714 185.733L342.702 187L331.6 186.383Z" fill="white"/>
<path d="M331.6 189.516L331.611 188.883L342.714 189.191L342.702 189.825L331.6 189.516Z" fill="white"/>
<path d="M339.15 189.825L317.679 189.31C315.531 180.506 316.498 172.123 318.212 164.399L339.683 164.913C337.511 173.035 337.328 181.607 339.15 189.825Z" fill="#6C63FF"/>
<path d="M322.507 170.374L322.518 169.107L333.621 169.724L333.609 170.991L322.507 170.374Z" fill="white"/>
<path d="M322.507 173.507L322.518 172.874L333.621 173.182L333.609 173.816L322.507 173.507Z" fill="white"/>
<path d="M321.496 177.274L321.509 176.641L333.621 176.949L333.608 177.583L321.496 177.274Z" fill="white"/>
<path d="M321.496 180.733L321.509 179.466L333.621 180.083L333.608 181.349L321.496 180.733Z" fill="white"/>
<path d="M321.496 183.866L321.509 183.233L333.621 183.541L333.608 184.175L321.496 183.866Z" fill="white"/>
<path d="M418.967 240.677L397.497 240.162C395.349 231.358 396.316 222.975 398.03 215.251L419.5 215.765C417.329 223.887 417.145 232.459 418.967 240.677Z" fill="#6C63FF"/>
<path d="M402.324 220.592L402.336 219.959L413.438 220.268L413.426 220.901L402.324 220.592Z" fill="white"/>
<path d="M402.324 224.051L402.336 222.784L413.438 223.401L413.426 224.668L402.324 224.051Z" fill="white"/>
<path d="M401.314 227.185L401.327 226.551L413.438 226.859L413.426 227.493L401.314 227.185Z" fill="white"/>
<path d="M401.314 230.951L401.327 230.318L413.438 230.626L413.425 231.26L401.314 230.951Z" fill="white"/>
<path d="M401.314 234.41L401.327 233.143L413.438 233.76L413.425 235.026L401.314 234.41Z" fill="white"/>
<path d="M395.729 165.34L374.258 164.826C372.111 156.022 373.078 147.639 374.792 139.915L396.262 140.429C394.091 148.551 393.907 157.123 395.729 165.34Z" fill="#F0F0F0"/>
<path d="M378.076 145.257L378.088 144.623L390.2 144.931L390.187 145.565L378.076 145.257Z" fill="white"/>
<path d="M378.076 149.023L378.088 148.39L390.2 148.698L390.188 149.332L378.076 149.023Z" fill="white"/>
<path d="M378.076 152.482L378.088 151.215L389.19 151.832L389.179 153.098L378.076 152.482Z" fill="white"/>
<path d="M378.076 155.615L378.087 154.982L389.19 155.29L389.178 155.923L378.076 155.615Z" fill="white"/>
<path d="M378.076 159.382L378.087 158.749L389.19 159.057L389.178 159.69L378.076 159.382Z" fill="white"/>
<path d="M436.901 125.825C463.283 125.825 484.67 97.7439 484.67 63.1046C484.67 28.4654 463.283 0.384705 436.901 0.384705C410.518 0.384705 389.131 28.4654 389.131 63.1046C389.131 97.7439 410.518 125.825 436.901 125.825Z" fill="#6C63FF"/>
<path d="M456.691 90.4327H417.111C416.387 90.4318 415.693 90.0539 415.181 89.3819C414.669 88.71 414.382 87.799 414.381 86.8487V55.4887C414.382 54.5385 414.669 53.6275 415.181 52.9556C415.693 52.2837 416.387 51.9057 417.111 51.9047H456.691C457.415 51.9057 458.108 52.2837 458.62 52.9556C459.132 53.6275 459.42 54.5385 459.42 55.4887V86.8487C459.42 87.7989 459.132 88.71 458.62 89.3819C458.108 90.0539 457.415 90.4318 456.691 90.4327ZM417.111 55.4887V86.8487H456.693L456.691 55.4887L417.111 55.4887Z" fill="white"/>
<path d="M449.184 55.4886H424.617V41.1526C424.617 30.769 429.783 23.2326 436.9 23.2326C444.018 23.2326 449.184 30.769 449.184 41.1526L449.184 55.4886ZM427.347 51.9046H446.454V41.1526C446.454 32.7119 442.526 26.8166 436.901 26.8166C431.275 26.8166 427.347 32.7119 427.347 41.1526L427.347 51.9046Z" fill="white"/>
<path d="M436.901 73.8566C438.408 73.8566 439.63 72.252 439.63 70.2726C439.63 68.2932 438.408 66.6886 436.901 66.6886C435.393 66.6886 434.171 68.2932 434.171 70.2726C434.171 72.252 435.393 73.8566 436.901 73.8566Z" fill="white"/>
</svg>
