<svg width="18" height="18" viewBox="0 0 18 18" fill="none" xmlns="http://www.w3.org/2000/svg">
<path d="M0 17.5416L4.16667 5.87498L11.6667 13.375L0 17.5416ZM2.75 14.7916L8.625 12.7083L4.83333 8.91665L2.75 14.7916ZM10.4583 9.66665L9.58333 8.79165L14.25 4.12498C14.6944 3.68054 15.2292 3.45831 15.8542 3.45831C16.4792 3.45831 17.0139 3.68054 17.4583 4.12498L17.9583 4.62498L17.0833 5.49998L16.5833 4.99998C16.3889 4.80554 16.1458 4.70831 15.8542 4.70831C15.5625 4.70831 15.3194 4.80554 15.125 4.99998L10.4583 9.66665ZM7.125 6.33331L6.25 5.45831L6.75 4.95831C6.94444 4.76387 7.04167 4.52776 7.04167 4.24998C7.04167 3.9722 6.94444 3.73609 6.75 3.54165L6.20833 2.99998L7.08333 2.12498L7.625 2.66665C8.06944 3.11109 8.29167 3.63887 8.29167 4.24998C8.29167 4.86109 8.06944 5.38887 7.625 5.83331L7.125 6.33331ZM8.79167 7.99998L7.91667 7.12498L10.9167 4.12498C11.1111 3.93054 11.2083 3.68748 11.2083 3.39581C11.2083 3.10415 11.1111 2.86109 10.9167 2.66665L9.58333 1.33331L10.4583 0.458313L11.7917 1.79165C12.2361 2.23609 12.4583 2.77081 12.4583 3.39581C12.4583 4.02081 12.2361 4.55554 11.7917 4.99998L8.79167 7.99998ZM12.125 11.3333L11.25 10.4583L12.5833 9.12498C13.0278 8.68054 13.5625 8.45831 14.1875 8.45831C14.8125 8.45831 15.3472 8.68054 15.7917 9.12498L17.125 10.4583L16.25 11.3333L14.9167 9.99998C14.7222 9.80554 14.4792 9.70831 14.1875 9.70831C13.8958 9.70831 13.6528 9.80554 13.4583 9.99998L12.125 11.3333Z" fill="#4A4A4A"/>
</svg>
