<svg width="20" height="20" viewBox="0 0 20 20" fill="none" xmlns="http://www.w3.org/2000/svg">
<path d="M3.75 18.3334C3.41667 18.3334 3.125 18.2084 2.875 17.9584C2.625 17.7084 2.5 17.4167 2.5 17.0834V4.16669C2.5 3.83335 2.625 3.54169 2.875 3.29169C3.125 3.04169 3.41667 2.91669 3.75 2.91669H5.10417V1.66669H6.45833V2.91669H13.5417V1.66669H14.8958V2.91669H16.25C16.5833 2.91669 16.875 3.04169 17.125 3.29169C17.375 3.54169 17.5 3.83335 17.5 4.16669V10.4375H16.25V8.12502H3.75V17.0834H10.3958V18.3334H3.75ZM18.5208 13.7709L17.0417 12.2917L17.6458 11.6875C17.7613 11.5764 17.9082 11.5209 18.0866 11.5209C18.265 11.5209 18.4097 11.5764 18.5208 11.6875L19.125 12.2917C19.2361 12.4071 19.2917 12.554 19.2917 12.7324C19.2917 12.9108 19.2361 13.0556 19.125 13.1667L18.5208 13.7709ZM11.6458 19.1667V17.6875L16.1458 13.1875L17.625 14.6667L13.125 19.1667H11.6458ZM3.75 6.87502H16.25V4.16669H3.75V6.87502Z" fill="#4A4A4A"/>
</svg>
